G04*
G04 #@! TF.GenerationSoftware,Altium Limited,Altium Designer,20.1.10 (176)*
G04*
G04 Layer_Color=8388736*
%FSLAX25Y25*%
%MOIN*%
G70*
G04*
G04 #@! TF.SameCoordinates,6E20D0A3-D42C-41D8-968C-EC961EFE1350*
G04*
G04*
G04 #@! TF.FilePolarity,Negative*
G04*
G01*
G75*
%ADD30R,0.04800X0.04800*%
%ADD31R,0.03950X0.04343*%
%ADD32R,0.06535X0.02205*%
%ADD33R,0.08110X0.07717*%
G04:AMPARAMS|DCode=34|XSize=39.37mil|YSize=39.37mil|CornerRadius=10.83mil|HoleSize=0mil|Usage=FLASHONLY|Rotation=90.000|XOffset=0mil|YOffset=0mil|HoleType=Round|Shape=RoundedRectangle|*
%AMROUNDEDRECTD34*
21,1,0.03937,0.01772,0,0,90.0*
21,1,0.01772,0.03937,0,0,90.0*
1,1,0.02165,0.00886,0.00886*
1,1,0.02165,0.00886,-0.00886*
1,1,0.02165,-0.00886,-0.00886*
1,1,0.02165,-0.00886,0.00886*
%
%ADD34ROUNDEDRECTD34*%
%ADD35O,0.03543X0.01181*%
%ADD36O,0.01181X0.03543*%
%ADD37R,0.18317X0.18317*%
%ADD38O,0.06063X0.01535*%
%ADD39R,0.04343X0.03950*%
%ADD40R,0.05800X0.02800*%
%ADD41C,0.06800*%
%ADD42R,0.06800X0.06800*%
%ADD43C,0.07493*%
%ADD44C,0.05721*%
%ADD45R,0.06800X0.06800*%
%ADD46C,0.03300*%
D30*
X89500Y3000D02*
D03*
Y10000D02*
D03*
X96500Y3000D02*
D03*
Y10000D02*
D03*
D31*
X97150Y16500D02*
D03*
X90850D02*
D03*
X83500Y14000D02*
D03*
X77201D02*
D03*
X69850Y86000D02*
D03*
X76150D02*
D03*
X14150D02*
D03*
X7850D02*
D03*
X55850Y63500D02*
D03*
X62150D02*
D03*
X59650Y21500D02*
D03*
X53350D02*
D03*
X34150Y86000D02*
D03*
X27850D02*
D03*
X25650Y62500D02*
D03*
X19350D02*
D03*
X20650Y41500D02*
D03*
X14350D02*
D03*
X31650D02*
D03*
X25350D02*
D03*
X63150Y86000D02*
D03*
X56850D02*
D03*
D32*
X17035Y25118D02*
D03*
Y22559D02*
D03*
Y20000D02*
D03*
Y17441D02*
D03*
Y14882D02*
D03*
D33*
X6209Y15472D02*
D03*
Y24528D02*
D03*
D34*
X45984Y54898D02*
D03*
Y31276D02*
D03*
X69606D02*
D03*
Y54898D02*
D03*
D35*
X45591Y51748D02*
D03*
Y50173D02*
D03*
Y48598D02*
D03*
Y47024D02*
D03*
Y45449D02*
D03*
Y43874D02*
D03*
Y42299D02*
D03*
Y40724D02*
D03*
Y39150D02*
D03*
Y37575D02*
D03*
Y36000D02*
D03*
Y34425D02*
D03*
X70000D02*
D03*
Y36000D02*
D03*
Y37575D02*
D03*
Y39150D02*
D03*
Y40724D02*
D03*
Y42299D02*
D03*
Y43874D02*
D03*
Y45449D02*
D03*
Y47024D02*
D03*
Y48598D02*
D03*
Y50173D02*
D03*
Y51748D02*
D03*
D36*
X49134Y30882D02*
D03*
X50709D02*
D03*
X52284D02*
D03*
X53858D02*
D03*
X55433D02*
D03*
X57008D02*
D03*
X58583D02*
D03*
X60158D02*
D03*
X61732D02*
D03*
X63307D02*
D03*
X64882D02*
D03*
X66457D02*
D03*
Y55291D02*
D03*
X64882D02*
D03*
X63307D02*
D03*
X61732D02*
D03*
X60158D02*
D03*
X58583D02*
D03*
X57008D02*
D03*
X55433D02*
D03*
X53858D02*
D03*
X52284D02*
D03*
X50709D02*
D03*
X49134D02*
D03*
D37*
X57795Y43087D02*
D03*
D38*
X44339Y78937D02*
D03*
Y76968D02*
D03*
Y75000D02*
D03*
Y73032D02*
D03*
Y71063D02*
D03*
X61661Y78937D02*
D03*
Y76968D02*
D03*
Y75000D02*
D03*
Y73032D02*
D03*
Y71063D02*
D03*
X10839Y78937D02*
D03*
Y76968D02*
D03*
Y75000D02*
D03*
Y73032D02*
D03*
Y71063D02*
D03*
X28161Y78937D02*
D03*
Y76968D02*
D03*
Y75000D02*
D03*
Y73032D02*
D03*
Y71063D02*
D03*
D39*
X39500Y21150D02*
D03*
Y14850D02*
D03*
X45000Y21150D02*
D03*
Y14850D02*
D03*
X34000D02*
D03*
Y21150D02*
D03*
X3500Y46850D02*
D03*
Y53150D02*
D03*
X9000Y46850D02*
D03*
Y53150D02*
D03*
X39500Y40850D02*
D03*
Y47150D02*
D03*
X33500Y55650D02*
D03*
Y49350D02*
D03*
X76000Y39850D02*
D03*
Y46150D02*
D03*
D40*
X26500Y55750D02*
D03*
Y48250D02*
D03*
X16500D02*
D03*
Y52000D02*
D03*
Y55750D02*
D03*
D41*
X85000Y25000D02*
D03*
X95000D02*
D03*
X85000Y35000D02*
D03*
Y45000D02*
D03*
Y65000D02*
D03*
Y55000D02*
D03*
X95000D02*
D03*
Y65000D02*
D03*
Y75000D02*
D03*
Y45000D02*
D03*
Y35000D02*
D03*
X5000Y95000D02*
D03*
X15000D02*
D03*
X25000D02*
D03*
X35000D02*
D03*
X45000D02*
D03*
X55000D02*
D03*
X65000D02*
D03*
X85000D02*
D03*
X75000D02*
D03*
X49000Y5000D02*
D03*
X39000D02*
D03*
X59000D02*
D03*
X69000D02*
D03*
X79000D02*
D03*
D42*
X85000Y75000D02*
D03*
D43*
X6209Y6221D02*
D03*
Y33779D02*
D03*
D44*
X16248Y29842D02*
D03*
Y10158D02*
D03*
D45*
X95000Y95000D02*
D03*
X29000Y5000D02*
D03*
D46*
X85000Y3000D02*
D03*
X76500Y24500D02*
D03*
X66500Y65500D02*
D03*
X16500Y62500D02*
D03*
X77000Y37500D02*
D03*
X70500Y69000D02*
D03*
X39500Y31825D02*
D03*
Y83000D02*
D03*
X59650Y16650D02*
D03*
X49850Y25000D02*
D03*
X4937Y71063D02*
D03*
X47000Y66500D02*
D03*
X20000Y83000D02*
D03*
X31500Y60000D02*
D03*
X76000Y48500D02*
D03*
X31154Y35500D02*
D03*
X9000Y57500D02*
D03*
X3500D02*
D03*
X50500Y62500D02*
D03*
X28850Y14850D02*
D03*
X51000Y14000D02*
D03*
X72500Y11000D02*
D03*
X32724Y45276D02*
D03*
M02*
