G04*
G04 #@! TF.GenerationSoftware,Altium Limited,Altium Designer,20.1.10 (176)*
G04*
G04 Layer_Color=65535*
%FSLAX25Y25*%
%MOIN*%
G70*
G04*
G04 #@! TF.SameCoordinates,6E20D0A3-D42C-41D8-968C-EC961EFE1350*
G04*
G04*
G04 #@! TF.FilePolarity,Positive*
G04*
G01*
G75*
%ADD10C,0.01968*%
%ADD11C,0.01181*%
%ADD12C,0.00984*%
%ADD13C,0.00787*%
%ADD14C,0.00800*%
%ADD15C,0.00591*%
%ADD16C,0.01000*%
%ADD17C,0.00394*%
%ADD18C,0.00500*%
D10*
X23728Y28858D02*
G03*
X23728Y28858I-787J0D01*
G01*
D11*
X41752Y51748D02*
G03*
X41752Y51748I-492J0D01*
G01*
D12*
X45224Y81693D02*
G03*
X45224Y81693I-492J0D01*
G01*
X11724D02*
G03*
X11724Y81693I-492J0D01*
G01*
X17268Y59284D02*
G03*
X17268Y59284I-492J0D01*
G01*
D13*
X51032Y81299D02*
G03*
X54969Y81299I1969J0D01*
G01*
X17531D02*
G03*
X21468Y81299I1969J0D01*
G01*
X500Y4252D02*
Y35748D01*
X11130D02*
X17823D01*
X11130Y4252D02*
X17823D01*
X500Y35748D02*
X1681D01*
X500Y4252D02*
X1681D01*
X49063Y68701D02*
Y81299D01*
X56937Y68701D02*
Y81299D01*
X49063Y68701D02*
X56937D01*
X49063Y81299D02*
X51032D01*
X54969D02*
X56937D01*
X15563Y68701D02*
Y81299D01*
X23437Y68701D02*
Y81299D01*
X15563Y68701D02*
X23437D01*
X15563Y81299D02*
X17531D01*
X21468D02*
X23437D01*
X22091Y45898D02*
Y58102D01*
X20910Y45898D02*
Y58102D01*
Y45898D02*
X22091D01*
X20910Y58102D02*
X22091D01*
D14*
X86500Y0D02*
Y12500D01*
X92500Y0D02*
Y12500D01*
X86500Y0D02*
X92500D01*
X93500D02*
Y12500D01*
X99500Y0D02*
Y12500D01*
X93500Y0D02*
X99500D01*
D15*
X89276Y13744D02*
X98724D01*
X89276Y19256D02*
X98724D01*
X75626Y11244D02*
X85075D01*
X75626Y16756D02*
X85075D01*
X68276Y88756D02*
X77724D01*
X68276Y83244D02*
X77724D01*
X6276D02*
X15724D01*
X6276Y88756D02*
X15724D01*
X42256Y13276D02*
Y22724D01*
X36744Y13276D02*
Y22724D01*
X31244Y13276D02*
Y22724D01*
X36756Y13276D02*
Y22724D01*
X26276Y83244D02*
X35724D01*
X26276Y88756D02*
X35724D01*
X12776Y38744D02*
X22224D01*
X12776Y44256D02*
X22224D01*
X23776Y38744D02*
X33224D01*
X23776Y44256D02*
X33224D01*
X55276Y83244D02*
X64724D01*
X55276Y88756D02*
X64724D01*
D16*
X80000Y20000D02*
Y80000D01*
X77500Y72776D02*
Y77776D01*
Y72776D02*
X80000Y75276D01*
X77500Y77776D02*
X80000Y75276D01*
Y20000D02*
X100000D01*
Y80000D01*
X80000Y70000D02*
X90000D01*
X80000Y80000D02*
X90000D01*
Y70000D02*
Y80000D01*
X100000D01*
X73543Y27339D02*
Y30095D01*
X70787Y27339D02*
X73543D01*
X42047D02*
X44803D01*
X42047D02*
Y30095D01*
X73543Y56079D02*
Y58835D01*
X70787D02*
X73543D01*
X42047D02*
X44803D01*
X42047Y56079D02*
Y58835D01*
X90000Y90000D02*
Y100000D01*
X0Y90000D02*
X100000D01*
Y100000D01*
X0D02*
X100000D01*
X0Y90000D02*
Y100000D01*
X92776Y102500D02*
X97776D01*
X92776D02*
X95276Y100000D01*
X97776Y102500D01*
X84000Y0D02*
Y10000D01*
X26224Y-2500D02*
X28724Y0D01*
X31224Y-2500D01*
X26224D02*
X31224D01*
X24000Y0D02*
X84000D01*
X24000D02*
Y10000D01*
X84000D01*
X34000Y0D02*
Y10000D01*
D17*
X54276Y66256D02*
X63724D01*
X54276Y60744D02*
X63724D01*
X47756Y13276D02*
Y22724D01*
X42244Y13276D02*
Y22724D01*
X51776Y18744D02*
X61224D01*
X51776Y24256D02*
X61224D01*
X17776Y59744D02*
X27224D01*
X17776Y65256D02*
X27224D01*
X744Y45276D02*
Y54724D01*
X6256Y45276D02*
Y54724D01*
X6244Y45276D02*
Y54724D01*
X11756Y45276D02*
Y54724D01*
X36744Y39276D02*
Y48724D01*
X42256Y39276D02*
Y48724D01*
X36256Y47776D02*
Y57224D01*
X30744Y47776D02*
Y57224D01*
X73244Y38276D02*
Y47724D01*
X78756Y38276D02*
Y47724D01*
D18*
X87917Y85749D02*
X86751D01*
X87334D01*
Y82834D01*
X86751Y82251D01*
X86167D01*
X85584Y82834D01*
X90833Y82251D02*
Y85749D01*
X89083Y84000D01*
X91416D01*
X69584Y78251D02*
Y81749D01*
X71334D01*
X71917Y81166D01*
Y80000D01*
X71334Y79417D01*
X69584D01*
X70751D02*
X71917Y78251D01*
X75416Y81749D02*
X74249Y81166D01*
X73083Y80000D01*
Y78834D01*
X73666Y78251D01*
X74833D01*
X75416Y78834D01*
Y79417D01*
X74833Y80000D01*
X73083D01*
X24000Y20249D02*
X22834D01*
X23417D01*
Y17334D01*
X22834Y16751D01*
X22251D01*
X21667Y17334D01*
X25166Y16751D02*
X26333D01*
X25749D01*
Y20249D01*
X25166Y19666D01*
X2365Y108978D02*
X1199D01*
X1782D01*
Y106062D01*
X1199Y105479D01*
X615D01*
X32Y106062D01*
X5864Y108978D02*
X3531D01*
Y107228D01*
X4697Y107811D01*
X5281D01*
X5864Y107228D01*
Y106062D01*
X5281Y105479D01*
X4114D01*
X3531Y106062D01*
X751Y87916D02*
X4249D01*
Y86166D01*
X3666Y85583D01*
X2500D01*
X1917Y86166D01*
Y87916D01*
Y86749D02*
X751Y85583D01*
X4249Y84417D02*
Y82084D01*
X3666D01*
X1334Y84417D01*
X751D01*
X32751Y81416D02*
X36249D01*
Y79666D01*
X35666Y79083D01*
X34500D01*
X33917Y79666D01*
Y81416D01*
Y80249D02*
X32751Y79083D01*
X35666Y77917D02*
X36249Y77334D01*
Y76167D01*
X35666Y75584D01*
X35083D01*
X34500Y76167D01*
X33917Y75584D01*
X33334D01*
X32751Y76167D01*
Y77334D01*
X33334Y77917D01*
X33917D01*
X34500Y77334D01*
X35083Y77917D01*
X35666D01*
X34500Y77334D02*
Y76167D01*
X47084Y84251D02*
Y87749D01*
X48834D01*
X49417Y87166D01*
Y86000D01*
X48834Y85417D01*
X47084D01*
X48251D02*
X49417Y84251D01*
X52916Y87749D02*
X50583D01*
Y86000D01*
X51749Y86583D01*
X52333D01*
X52916Y86000D01*
Y84834D01*
X52333Y84251D01*
X51166D01*
X50583Y84834D01*
X35334Y61417D02*
X34751Y60834D01*
Y59667D01*
X35334Y59084D01*
X37666D01*
X38249Y59667D01*
Y60834D01*
X37666Y61417D01*
Y62583D02*
X38249Y63166D01*
Y64333D01*
X37666Y64916D01*
X35334D01*
X34751Y64333D01*
Y63166D01*
X35334Y62583D01*
X35917D01*
X36500Y63166D01*
Y64916D01*
X29917Y69166D02*
X29334Y69749D01*
X28167D01*
X27584Y69166D01*
Y66834D01*
X28167Y66251D01*
X29334D01*
X29917Y66834D01*
X31083Y69166D02*
X31666Y69749D01*
X32833D01*
X33416Y69166D01*
Y68583D01*
X32833Y68000D01*
X33416Y67417D01*
Y66834D01*
X32833Y66251D01*
X31666D01*
X31083Y66834D01*
Y67417D01*
X31666Y68000D01*
X31083Y68583D01*
Y69166D01*
X31666Y68000D02*
X32833D01*
X6334Y61917D02*
X5751Y61334D01*
Y60167D01*
X6334Y59584D01*
X8666D01*
X9249Y60167D01*
Y61334D01*
X8666Y61917D01*
X5751Y65416D02*
X6334Y64249D01*
X7500Y63083D01*
X8666D01*
X9249Y63666D01*
Y64833D01*
X8666Y65416D01*
X8083D01*
X7500Y64833D01*
Y63083D01*
X65417Y21666D02*
X64834Y22249D01*
X63667D01*
X63084Y21666D01*
Y19334D01*
X63667Y18751D01*
X64834D01*
X65417Y19334D01*
X66583Y22249D02*
X68916D01*
Y21666D01*
X66583Y19334D01*
Y18751D01*
X3751Y73584D02*
X6666D01*
X7249Y74167D01*
Y75334D01*
X6666Y75917D01*
X3751D01*
Y79416D02*
X4334Y78249D01*
X5500Y77083D01*
X6666D01*
X7249Y77666D01*
Y78833D01*
X6666Y79416D01*
X6083D01*
X5500Y78833D01*
Y77083D01*
X41584Y64249D02*
Y61334D01*
X42167Y60751D01*
X43334D01*
X43917Y61334D01*
Y64249D01*
X47416D02*
X45083D01*
Y62500D01*
X46249Y63083D01*
X46833D01*
X47416Y62500D01*
Y61334D01*
X46833Y60751D01*
X45666D01*
X45083Y61334D01*
X10751Y59584D02*
X13666D01*
X14249Y60167D01*
Y61334D01*
X13666Y61917D01*
X10751D01*
X11334Y63083D02*
X10751Y63666D01*
Y64833D01*
X11334Y65416D01*
X11917D01*
X12500Y64833D01*
Y64249D01*
Y64833D01*
X13083Y65416D01*
X13666D01*
X14249Y64833D01*
Y63666D01*
X13666Y63083D01*
X63584Y27749D02*
Y24834D01*
X64167Y24251D01*
X65334D01*
X65917Y24834D01*
Y27749D01*
X69416Y24251D02*
X67083D01*
X69416Y26583D01*
Y27166D01*
X68833Y27749D01*
X67666D01*
X67083Y27166D01*
X23084Y33751D02*
Y37249D01*
X24834D01*
X25417Y36666D01*
Y35500D01*
X24834Y34917D01*
X23084D01*
X24251D02*
X25417Y33751D01*
X28333D02*
Y37249D01*
X26583Y35500D01*
X28916D01*
X31749Y24084D02*
X28251D01*
Y25834D01*
X28834Y26417D01*
X30000D01*
X30583Y25834D01*
Y24084D01*
Y25251D02*
X31749Y26417D01*
X28834Y27583D02*
X28251Y28166D01*
Y29333D01*
X28834Y29916D01*
X29417D01*
X30000Y29333D01*
Y28749D01*
Y29333D01*
X30583Y29916D01*
X31166D01*
X31749Y29333D01*
Y28166D01*
X31166Y27583D01*
X36249Y24084D02*
X32751D01*
Y25834D01*
X33334Y26417D01*
X34500D01*
X35083Y25834D01*
Y24084D01*
Y25251D02*
X36249Y26417D01*
Y29916D02*
Y27583D01*
X33917Y29916D01*
X33334D01*
X32751Y29333D01*
Y28166D01*
X33334Y27583D01*
X6167Y39251D02*
Y42749D01*
X7917D01*
X8500Y42166D01*
Y41000D01*
X7917Y40417D01*
X6167D01*
X7334D02*
X8500Y39251D01*
X9666D02*
X10833D01*
X10249D01*
Y42749D01*
X9666Y42166D01*
X55917Y14749D02*
X54751D01*
X55334D01*
Y11834D01*
X54751Y11251D01*
X54167D01*
X53584Y11834D01*
X59416Y11251D02*
X57083D01*
X59416Y13583D01*
Y14166D01*
X58833Y14749D01*
X57666D01*
X57083Y14166D01*
X37917Y37166D02*
X37334Y37749D01*
X36167D01*
X35584Y37166D01*
Y34834D01*
X36167Y34251D01*
X37334D01*
X37917Y34834D01*
X41416Y37749D02*
X39083D01*
Y36000D01*
X40249Y36583D01*
X40833D01*
X41416Y36000D01*
Y34834D01*
X40833Y34251D01*
X39666D01*
X39083Y34834D01*
X37834Y26417D02*
X37251Y25834D01*
Y24667D01*
X37834Y24084D01*
X40166D01*
X40749Y24667D01*
Y25834D01*
X40166Y26417D01*
X40749Y29333D02*
X37251D01*
X39000Y27583D01*
Y29916D01*
X71417Y64666D02*
X70834Y65249D01*
X69667D01*
X69084Y64666D01*
Y62334D01*
X69667Y61751D01*
X70834D01*
X71417Y62334D01*
X72583Y64666D02*
X73166Y65249D01*
X74333D01*
X74916Y64666D01*
Y64083D01*
X74333Y63500D01*
X73749D01*
X74333D01*
X74916Y62917D01*
Y62334D01*
X74333Y61751D01*
X73166D01*
X72583Y62334D01*
X75834Y30917D02*
X75251Y30334D01*
Y29167D01*
X75834Y28584D01*
X78166D01*
X78749Y29167D01*
Y30334D01*
X78166Y30917D01*
X78749Y34416D02*
Y32083D01*
X76417Y34416D01*
X75834D01*
X75251Y33833D01*
Y32666D01*
X75834Y32083D01*
X1834Y62000D02*
X1251Y61417D01*
Y60251D01*
X1834Y59667D01*
X4166D01*
X4749Y60251D01*
Y61417D01*
X4166Y62000D01*
X4749Y63166D02*
Y64333D01*
Y63749D01*
X1251D01*
X1834Y63166D01*
M02*
