G04*
G04 #@! TF.GenerationSoftware,Altium Limited,Altium Designer,20.1.10 (176)*
G04*
G04 Layer_Color=16711935*
%FSLAX25Y25*%
%MOIN*%
G70*
G04*
G04 #@! TF.SameCoordinates,6E20D0A3-D42C-41D8-968C-EC961EFE1350*
G04*
G04*
G04 #@! TF.FilePolarity,Negative*
G04*
G01*
G75*
%ADD41C,0.06800*%
%ADD42R,0.06800X0.06800*%
%ADD43C,0.07493*%
%ADD44C,0.05721*%
%ADD45R,0.06800X0.06800*%
%ADD46C,0.03300*%
D41*
X85000Y25000D02*
D03*
X95000D02*
D03*
X85000Y35000D02*
D03*
Y45000D02*
D03*
Y65000D02*
D03*
Y55000D02*
D03*
X95000D02*
D03*
Y65000D02*
D03*
Y75000D02*
D03*
Y45000D02*
D03*
Y35000D02*
D03*
X5000Y95000D02*
D03*
X15000D02*
D03*
X25000D02*
D03*
X35000D02*
D03*
X45000D02*
D03*
X55000D02*
D03*
X65000D02*
D03*
X85000D02*
D03*
X75000D02*
D03*
X49000Y5000D02*
D03*
X39000D02*
D03*
X59000D02*
D03*
X69000D02*
D03*
X79000D02*
D03*
D42*
X85000Y75000D02*
D03*
D43*
X6209Y6221D02*
D03*
Y33779D02*
D03*
D44*
X16248Y29842D02*
D03*
Y10158D02*
D03*
D45*
X95000Y95000D02*
D03*
X29000Y5000D02*
D03*
D46*
X85000Y3000D02*
D03*
X76500Y24500D02*
D03*
X66500Y65500D02*
D03*
X16500Y62500D02*
D03*
X77000Y37500D02*
D03*
X70500Y69000D02*
D03*
X39500Y31825D02*
D03*
Y83000D02*
D03*
X59650Y16650D02*
D03*
X49850Y25000D02*
D03*
X4937Y71063D02*
D03*
X47000Y66500D02*
D03*
X20000Y83000D02*
D03*
X31500Y60000D02*
D03*
X76000Y48500D02*
D03*
X31154Y35500D02*
D03*
X9000Y57500D02*
D03*
X3500D02*
D03*
X50500Y62500D02*
D03*
X28850Y14850D02*
D03*
X51000Y14000D02*
D03*
X72500Y11000D02*
D03*
X32724Y45276D02*
D03*
M02*
