M48
;Layer_Color=9474304
;FILE_FORMAT=2:5
INCH,LZ
;TYPE=PLATED
T1F00S00C0.01200
T2F00S00C0.03346
T3F00S00C0.04200
T4F00S00C0.04724
%
T01
X002885Y001485
X0051Y0014
X005965Y001665
X004985Y0025
X00765Y00245
X00725Y0011
X0085Y0003
X0077Y00375
X0076Y00485
X00705Y0069
X00665Y00655
X00505Y00625
X0047Y00665
X00315Y006
X0032724Y0045276
X0031154Y00355
X00395Y0031825
Y0083
X002
X00165Y00625
X0009Y00575
X00035
X0004937Y0071063
T02
X0016248Y0010158
Y0029842
T03
X0029Y0005
X0039
X0049
X0059
X0069
X0079
X0085Y0025
X0095
Y0035
X0085
Y0045
Y0055
Y0065
Y0075
X0095
Y0065
Y0055
Y0045
Y0095
X0085
X0075
X0065
X0055
X0045
X0035
X0025
X0015
X0005
T04
X0006209Y0006221
Y0033779
M30
